<?xml version="1.0" encoding="iso-8859-1"?>
<!-- Generator: Adobe Illustrator 16.0.0, SVG Export Plug-In . SVG Version: 6.00 Build 0)  -->
<!DOCTYPE svg PUBLIC "-//W3C//DTD SVG 1.1//EN" "http://www.w3.org/Graphics/SVG/1.1/DTD/svg11.dtd">
<svg version="1.1" id="Capa_1" xmlns="http://www.w3.org/2000/svg" xmlns:xlink="http://www.w3.org/1999/xlink" x="0px" y="0px"
	 width="334.401px" height="334.401px" viewBox="0 0 334.401 334.401" style="enable-background:new 0 0 334.401 334.401;"
	 xml:space="preserve">
<g>
	<g>
		<g>
			<path d="M208.907,131.4c-27.334,0-49.582,22.242-49.582,49.581c0,27.328,22.248,49.582,49.582,49.582
				s49.569-22.254,49.569-49.582C258.477,153.636,236.247,131.4,208.907,131.4z"/>
		</g>
		<g>
			<path d="M290.14,70.92h-21.197L242.029,45.7h-74.718l-21.854,25.22h-45.12c-2.018-8.332-7.482-14.018-14.024-14.018H54.418
				c-6.575,0-12.084,5.755-14.057,14.192C17.771,73.073,0,92.099,0,115.188v129.247c0,24.409,19.855,44.268,44.271,44.268H290.14
				c24.416,0,44.262-19.858,44.262-44.268V115.188C334.401,90.784,314.556,70.92,290.14,70.92z M40.04,232.869
				c0,4.612-3.756,8.353-8.374,8.353s-8.362-3.74-8.362-8.353v-88.24c0-4.618,3.744-8.365,8.362-8.365s8.374,3.747,8.374,8.365
				V232.869z M90.363,103.598c0,4.87-3.966,8.821-8.83,8.821H58.85c-4.87,0-8.83-3.951-8.83-8.821v-5.191
				c0-4.876,3.96-8.83,8.83-8.83h22.683c4.87,0,8.83,3.954,8.83,8.83V103.598z M208.907,251.712
				c-39.001,0-70.737-31.734-70.737-70.736c0-38.992,31.735-70.728,70.737-70.728c38.995,0,70.712,31.735,70.712,70.728
				C279.619,219.978,247.902,251.712,208.907,251.712z"/>
		</g>
	</g>
</g>
<g>
</g>
<g>
</g>
<g>
</g>
<g>
</g>
<g>
</g>
<g>
</g>
<g>
</g>
<g>
</g>
<g>
</g>
<g>
</g>
<g>
</g>
<g>
</g>
<g>
</g>
<g>
</g>
<g>
</g>
</svg>
