<?xml version="1.0" encoding="utf-8"?>
<!-- Generator: Adobe Illustrator 17.0.0, SVG Export Plug-In . SVG Version: 6.00 Build 0)  -->
<!DOCTYPE svg PUBLIC "-//W3C//DTD SVG 1.1//EN" "http://www.w3.org/Graphics/SVG/1.1/DTD/svg11.dtd">
<svg version="1.1" id="Capa_1" xmlns="http://www.w3.org/2000/svg" xmlns:xlink="http://www.w3.org/1999/xlink" x="0px" y="0px"
	 width="612px" height="792px" viewBox="0 0 612 792" enable-background="new 0 0 612 792" xml:space="preserve">
<g>
	<g>
		<circle fill="#FFFFFF" cx="124.707" cy="483.379" r="37.63"/>
		<path fill="#FFFFFF" d="M270.871,483.401c0,20.831,16.885,37.63,37.673,37.63c20.723,0,37.652-16.799,37.652-37.63
			c0-20.788-16.907-37.63-37.652-37.63C287.756,445.771,270.871,462.591,270.871,483.401z"/>
		<path fill="#FFFFFF" d="M454.795,478.657c0,20.702,16.907,37.587,37.695,37.587c20.767,0,37.652-16.885,37.652-37.587
			c0-20.831-16.885-37.695-37.652-37.695C471.701,440.983,454.795,457.825,454.795,478.657z"/>
		<path fill="#FFFFFF" d="M579.74,609.488V569.12c-3.429-41.253-51.388-40.692-51.388-40.692h-75.497
			c-54.062,1.078-52.121,40.692-52.121,40.692v40.369h-4.96v-35.581c-3.429-41.253-51.367-40.735-51.367-40.735h-75.476
			c-54.105,1.078-52.186,40.735-52.186,40.735v35.56h-4.766v-35.56c-3.472-41.253-51.367-40.735-51.367-40.735h-75.54
			c-54.062,1.078-52.1,40.735-52.1,40.735v35.56H0v54.084h612v-54.062H579.74z"/>
		<path fill="#FFFFFF" d="M297.806,215.958c-1.704-1.402-4.248-1.876-6.469-1.078c-2.221,0.798-3.644,2.674-3.644,4.744v85.331
			c0,2.092,1.445,4.011,3.644,4.766c2.221,0.776,4.766,0.367,6.469-1.078l49.447-42.719c2.307-2.006,2.307-5.24,0-7.224
			L297.806,215.958z"/>
		<path fill="#FFFFFF" d="M579.653,128.449H32.886v267.658h546.767V128.449z M308.523,342.563c-44.337,0-80.263-35.97-80.263-80.285
			c0-44.293,35.948-80.263,80.263-80.263s80.263,35.97,80.263,80.263S352.838,342.563,308.523,342.563z"/>
	</g>
</g>
</svg>
