<?xml version="1.0" encoding="utf-8"?>
<!-- Generator: Adobe Illustrator 17.0.0, SVG Export Plug-In . SVG Version: 6.00 Build 0)  -->
<!DOCTYPE svg PUBLIC "-//W3C//DTD SVG 1.1//EN" "http://www.w3.org/Graphics/SVG/1.1/DTD/svg11.dtd">
<svg version="1.1" id="Capa_1" xmlns="http://www.w3.org/2000/svg" xmlns:xlink="http://www.w3.org/1999/xlink" x="0px" y="0px"
	 width="728.5px" height="515.91px" viewBox="0 0 728.5 515.91" enable-background="new 0 0 728.5 515.91" xml:space="preserve">
<g>
	<g id="c84_landscape">
		<path fill="#FFFFFF" d="M153.144,432.171V94.43h-37.765c-4.997,0-9.084,4.069-9.084,9.084v372.989c0,5.033,4.087,9.12,9.084,9.12
			h431.1c5.015,0,9.102-4.087,9.102-9.12v-35.23H162.264C157.177,441.273,153.144,437.168,153.144,432.171z"/>
		<path fill="#FFFFFF" d="M613.085,30.305H182.039c-5.033,0-9.084,4.087-9.084,9.084V412.36c0,5.033,4.069,9.156,9.084,9.156
			h431.064c5.015,0,9.102-4.105,9.102-9.156V39.389C622.187,34.392,618.118,30.305,613.085,30.305z M293.709,64.214
			c26.664,0,48.33,21.649,48.33,48.366c0,26.753-21.667,48.312-48.33,48.312c-26.699,0-48.348-21.559-48.348-48.312
			C245.361,85.863,267.009,64.214,293.709,64.214z M592.632,308.864h-0.589H236.027h-28.52v-3.712l75.994-86.827l42.762,28.841
			l49.829-85.399l57.896,41.049l52.328-108.458l106.316,210.472V308.864z"/>
	</g>
	<g id="Capa_1_147_">
	</g>
</g>
</svg>
